# xmcd CD database file
#
# Track frame offsets:
#	150
#	6409
#	30947
#	49055
#	52075
#	71573
#	88820
#	113488
#	118182
#	134711
#	152369
#	164625
#	186489
#	188765
#	205095
#	233848
#	235381
#	256730
#	272953
#
# Disc length: 4440 seconds
#
# Revision: 0
# Processed by: cddbd v1.5PL3 Copyright (c) Steve Scherf et al.
# Submitted via: CDex 1.51
#
DISCID=11115613
DTITLE=ZZ - HiBOOM ZZ
DYEAR=1900
DGENRE=Pop
TTITLE0=PLUG IN -instrumental-
TTITLE1=NO WAY OUT 【Virsion.2】
TTITLE2=Yeah!Ho!
TTITLE3=echoes in the basement -instrumental-
TTITLE4=Put Your Hands
TTITLE5=Juneの夢
TTITLE6=ひまわり
TTITLE7=jasmin -instrumental-
TTITLE8=Dangan
TTITLE9=揚子江
TTITLE10=Na・Na・Na Now Young
TTITLE11=Living in your smile
TTITLE12=Close to me -instrumental-
TTITLE13=BRIGHTESTEST
TTITLE14=愛情
TTITLE15=Circle -instrumental-
TTITLE16=トモダチノウタ
TTITLE17=PLUG OUT
TTITLE18=CCCD
EXTD=
EXTT0=
EXTT1=
EXTT2=
EXTT3=
EXTT4=
EXTT5=
EXTT6=
EXTT7=
EXTT8=
EXTT9=
EXTT10=
EXTT11=
EXTT12=
EXTT13=
EXTT14=
EXTT15=
EXTT16=
EXTT17=
EXTT18=
PLAYORDER=
